<svg width="23" height="23" viewBox="0 0 23 23" fill="none" xmlns="http://www.w3.org/2000/svg">
<path d="M1.04326 0C0.766562 0 0.501197 0.109894 0.305516 0.305516C0.109894 0.501197 0 0.766562 0 1.04326C0 1.31995 0.109894 1.58531 0.305516 1.78099L20.9664 22.4419C21.0626 22.5415 21.1778 22.621 21.3051 22.6757C21.4324 22.7304 21.5693 22.7592 21.7079 22.7604C21.8464 22.7616 21.9838 22.7352 22.1121 22.6827C22.2403 22.6303 22.3568 22.5528 22.4548 22.4548C22.5528 22.3568 22.6303 22.2403 22.6827 22.1121C22.7352 21.9838 22.7616 21.8464 22.7604 21.7079C22.7592 21.5693 22.7304 21.4324 22.6757 21.3051C22.621 21.1778 22.5415 21.0626 22.4419 20.9664L1.78099 0.305516C1.58531 0.109894 1.31995 0 1.04326 0Z" fill="#CCCCCC"/>
<path d="M21.7079 0C21.4312 0 21.1658 0.109894 20.9702 0.305516L0.305516 20.9664C0.109894 21.1621 0 21.4275 0 21.7042C0 21.9809 0.109894 22.2463 0.305516 22.4419C0.501197 22.6375 0.766562 22.7474 1.04326 22.7474C1.31995 22.7474 1.58531 22.6375 1.78099 22.4419L22.4419 1.78099C22.6375 1.58531 22.7474 1.31995 22.7474 1.04326C22.7474 0.766562 22.6375 0.501197 22.4419 0.305516C22.2463 0.109894 21.9809 0 21.7042 0H21.7079Z" fill="#CCCCCC"/>
</svg>
